<svg width="513" height="512" viewBox="0 0 513 512" fill="none" xmlns="http://www.w3.org/2000/svg">
<path d="M512.659 139.037H372.963V0.658905H431.609C476.418 0.658905 512.659 36.9009 512.659 81.7092V139.037Z" fill="#131316"/>
<path d="M0 430.95V185.823H139.037V512.001H81.0502C36.2419 512.001 0 475.758 0 430.95Z" fill="#131316"/>
<path d="M186.481 430.95V185.823H325.519V512.001H267.532C222.724 512.001 186.481 475.758 186.481 430.95Z" fill="#131316"/>
<path d="M372.963 430.95V185.823H512.001V512.001H454.013C409.205 512.001 372.963 475.758 372.963 430.95Z" fill="#131316"/>
<path d="M246.445 0H0V59.3051C0 102.795 35.583 138.379 79.0734 138.379H325.519V79.0734C325.519 35.583 289.936 0 246.445 0Z" fill="#131316"/>
</svg>
